# xmcd
#
# Track frame offsets: 
#        150
#        35814
#        60475
#        90166
#        107771
#        129743
#        156473
#        180493
#        206652
#        229990
#        249057
#        269761
#
# Disc length: 3833 seconds
#
# Revision: 0
# Processed by: cddbd v1.5.2PL0 Copyright (c) Steve Scherf et al.
# Submitted via: ExactAudioCopy v0.95b3
#
DISCID=a50ef70c
DTITLE=Lusanda Spiritual Group - Uthando
DYEAR=1900
DGENRE=Gospel
TTITLE0=Uthando
TTITLE1=Sendisiza
TTITLE2=Ndiya Kulangazelela
TTITLE3=Mandithwale
TTITLE4=Sinelizwe
TTITLE5=Uhlalele Ntoni
TTITLE6=Sisamile
TTITLE7=Okude Nuthixo
TTITLE8=Emnqamlezweni
TTITLE9=Kunguko Ndizayo
TTITLE10=Uze Ungayilahli
TTITLE11=Nkosi Thixo Ufihliwe
EXTD=
EXTT0=
EXTT1=
EXTT2=
EXTT3=
EXTT4=
EXTT5=
EXTT6=
EXTT7=
EXTT8=
EXTT9=
EXTT10=
EXTT11=
PLAYORDER=
